<svg width="40" height="40" viewBox="0 0 40 40" fill="none" xmlns="http://www.w3.org/2000/svg">
<circle cx="20" cy="20" r="20" fill="#EDEEEF"/>
<path fill-rule="evenodd" clip-rule="evenodd" d="M20.9697 14.2197C21.6076 13.5817 22.4728 13.2234 23.375 13.2234C24.2772 13.2234 25.1424 13.5817 25.7803 14.2197C26.4183 14.8576 26.7766 15.7228 26.7766 16.625C26.7766 17.5272 26.4183 18.3924 25.7803 19.0303L22.7829 22.0278C22.4692 22.3471 22.0951 22.6009 21.6825 22.7743C21.2685 22.9483 20.824 23.0379 20.375 23.0379C19.926 23.0379 19.4815 22.9483 19.0675 22.7743C18.6536 22.6004 18.2785 22.3456 17.9643 22.0249C17.6744 21.729 17.6792 21.2541 17.9751 20.9643C18.271 20.6744 18.7458 20.6793 19.0357 20.9751C19.2103 21.1533 19.4187 21.2949 19.6486 21.3915C19.8786 21.4881 20.1255 21.5379 20.375 21.5379C20.6244 21.5379 20.8714 21.4881 21.1014 21.3915C21.3313 21.2949 21.5397 21.1533 21.7143 20.9751L21.7197 20.9697L24.7197 17.9697C25.0763 17.613 25.2766 17.1294 25.2766 16.625C25.2766 16.1207 25.0763 15.637 24.7197 15.2803C24.363 14.9237 23.8794 14.7234 23.375 14.7234C22.8706 14.7234 22.3869 14.9237 22.0303 15.2803L21.6553 15.6553C21.3624 15.9482 20.8875 15.9482 20.5947 15.6553C20.3018 15.3624 20.3018 14.8876 20.5947 14.5947L20.9697 14.2197Z" fill="black"/>
<path fill-rule="evenodd" clip-rule="evenodd" d="M18.3176 17.2256C18.7315 17.0517 19.176 16.9621 19.625 16.9621C20.074 16.9621 20.5185 17.0517 20.9325 17.2256C21.3464 17.3996 21.7215 17.6544 22.0357 17.9751C22.3256 18.271 22.3207 18.7458 22.0249 19.0357C21.7291 19.3256 21.2542 19.3207 20.9643 19.0249C20.7897 18.8467 20.5813 18.7051 20.3514 18.6085C20.1214 18.5119 19.8745 18.4621 19.625 18.4621C19.3756 18.4621 19.1286 18.5119 18.8986 18.6085C18.6687 18.7051 18.4603 18.8467 18.2857 19.0249L18.2804 19.0303L15.2803 22.0303C14.9237 22.387 14.7234 22.8706 14.7234 23.375C14.7234 23.8793 14.9237 24.3631 15.2803 24.7197C15.637 25.0763 16.1207 25.2766 16.625 25.2766C17.1294 25.2766 17.613 25.0763 17.9697 24.7197L18.3447 24.3447C18.6376 24.0517 19.1125 24.0517 19.4053 24.3447C19.6982 24.6376 19.6982 25.1125 19.4053 25.4053L19.0303 25.7803C18.3924 26.4183 17.5272 26.7766 16.625 26.7766C15.7228 26.7766 14.8576 26.4183 14.2197 25.7803C13.5817 25.1424 13.2234 24.2772 13.2234 23.375C13.2234 22.4728 13.5817 21.6076 14.2197 20.9697L17.2171 17.9722C17.5308 17.6528 17.9049 17.3991 18.3176 17.2256Z" fill="black"/>
</svg>
