<svg width="40" height="40" viewBox="0 0 40 40" fill="none" xmlns="http://www.w3.org/2000/svg">
<circle cx="20" cy="20" r="20" fill="#EDEEEF"/>
<g clip-path="url(#clip0_31_341)">
<path d="M15.9561 20.4894C15.6156 21.1589 16.0022 21.4789 16.8844 22.0256C17.6344 22.4889 18.6706 22.6583 19.3361 22.7261C19.0633 22.9883 20.3133 21.7861 16.7133 25.2489C15.95 25.9806 17.1789 27.1544 17.9417 26.4383L20.0067 24.4467C20.7972 25.2072 21.555 25.9361 22.0717 26.4411C22.835 27.16 24.0633 25.9961 23.3083 25.2517C23.2517 25.1978 20.51 22.5678 20.6772 22.7289C21.3511 22.6611 22.3717 22.4817 23.1128 22.0283L23.1122 22.0278C23.9944 21.4783 24.3811 21.1589 24.0456 20.4894C23.8428 20.1094 23.2961 19.7917 22.5683 20.3411C22.5683 20.3411 21.5856 21.0939 20.0006 21.0939C18.415 21.0939 17.4328 20.3411 17.4328 20.3411C16.7056 19.7889 16.1567 20.1094 15.9561 20.4894Z" fill="#1E222E"/>
<path d="M19.9994 20.0789C21.9317 20.0789 23.5094 18.5689 23.5094 16.71C23.5094 14.8433 21.9317 13.3333 19.9994 13.3333C18.0667 13.3333 16.4889 14.8433 16.4889 16.71C16.4889 18.5689 18.0667 20.0789 19.9994 20.0789ZM19.9994 15.0439C20.9489 15.0439 21.7233 15.7889 21.7233 16.71C21.7233 17.6233 20.9489 18.3683 19.9994 18.3683C19.05 18.3683 18.2756 17.6233 18.2756 16.71C18.275 15.7883 19.0494 15.0439 19.9994 15.0439Z" fill="#1E222E"/>
</g>
<defs>
<clipPath id="clip0_31_341">
<rect width="13.3333" height="13.3333" fill="white" transform="translate(13.3333 13.3333)"/>
</clipPath>
</defs>
</svg>
