<svg width="40" height="40" viewBox="0 0 40 40" fill="none" xmlns="http://www.w3.org/2000/svg">
<circle cx="20" cy="20" r="20" fill="#EDEEEF"/>
<g clip-path="url(#clip0_31_352)">
<path d="M27.2443 15.1821C27.1788 14.5609 26.902 13.9809 26.4602 13.5393C26.0184 13.0976 25.4383 12.821 24.817 12.7557C21.616 12.4125 18.3874 12.4125 15.1863 12.7557C14.5644 12.8203 13.9836 13.0965 13.5411 13.5383C13.0986 13.98 12.8213 14.5603 12.7556 15.1821C12.4139 18.3847 12.4139 21.6145 12.7556 24.8171C12.8219 25.4382 13.0989 26.0178 13.5405 26.4595C13.9822 26.9011 14.5618 27.1781 15.1829 27.2444C18.384 27.5876 21.6125 27.5876 24.8136 27.2444C25.4353 27.1789 26.0157 26.9022 26.4581 26.4605C26.9004 26.0187 27.1779 25.4387 27.2443 24.8171C27.586 21.6145 27.586 18.3847 27.2443 15.1821ZM24.2383 22.6821C24.0201 22.7128 22.9531 22.6821 22.8977 22.6821C22.6212 22.6853 22.3547 22.579 22.1562 22.3864C21.9312 22.1691 21.7301 21.9304 21.5102 21.7046C21.4454 21.6353 21.375 21.5714 21.2997 21.5137C21.1241 21.379 20.9503 21.4097 20.8676 21.6168C20.803 21.8406 20.7579 22.0696 20.7329 22.3012C20.7184 22.51 20.5855 22.6421 20.3503 22.6557C20.2045 22.6642 20.0588 22.6668 19.9147 22.6634C19.3898 22.6598 18.8731 22.5318 18.4071 22.2901C17.9028 22.0094 17.4634 21.6255 17.1176 21.1634C16.5491 20.4373 16.0949 19.6395 15.6892 18.8171C15.6679 18.7753 15.252 17.8915 15.2417 17.8489C15.2042 17.71 15.2417 17.5762 15.3568 17.5293C15.4301 17.5012 16.8005 17.5293 16.8235 17.5293C16.9255 17.5287 17.025 17.5605 17.1077 17.6201C17.1904 17.6797 17.252 17.764 17.2838 17.8608C17.5371 18.5095 17.884 19.1177 18.3133 19.6659C18.3734 19.739 18.4438 19.803 18.5221 19.856C18.6338 19.9327 18.7395 19.9063 18.7855 19.7767C18.8401 19.5982 18.8722 19.4135 18.8809 19.227C18.8886 18.8571 18.8809 18.6142 18.8605 18.2444C18.8468 18.0074 18.7633 17.8003 18.4139 17.733C18.3065 17.7134 18.2971 17.6248 18.3662 17.5361C18.5102 17.3529 18.7071 17.3231 18.9278 17.3128C19.2568 17.2932 19.5858 17.306 19.9147 17.3128H19.9863C20.1295 17.3116 20.2724 17.3259 20.4125 17.3554C20.4953 17.3726 20.5703 17.4159 20.6266 17.479C20.683 17.542 20.7175 17.6215 20.7253 17.7057C20.7422 17.799 20.7493 17.8939 20.7466 17.9887C20.738 18.3918 20.7184 18.7958 20.7142 19.1989C20.7102 19.3589 20.7248 19.5187 20.7576 19.6753C20.8045 19.8909 20.952 19.9438 21.0985 19.7887C21.2885 19.5889 21.4626 19.3746 21.6193 19.1478C21.8968 18.7334 22.1256 18.2884 22.3011 17.8216C22.3966 17.5821 22.4716 17.5293 22.7272 17.5293H24.1812C24.2677 17.5278 24.3539 17.5393 24.4369 17.5634C24.4663 17.5711 24.4938 17.5848 24.5176 17.6037C24.5415 17.6225 24.5612 17.6461 24.5755 17.6729C24.5898 17.6997 24.5984 17.7291 24.6008 17.7594C24.6032 17.7897 24.5994 17.8202 24.5895 17.8489C24.5179 18.1685 24.3457 18.4395 24.1633 18.7012C23.8676 19.1196 23.5556 19.5279 23.2531 19.9412C23.2146 19.9958 23.1796 20.0527 23.1483 20.1117C23.0341 20.3171 23.0426 20.4321 23.2079 20.6026C23.4721 20.8745 23.7542 21.1284 24.0091 21.408C24.196 21.6114 24.3648 21.8307 24.5136 22.0634C24.7003 22.3532 24.5852 22.6293 24.2375 22.6787L24.2383 22.6821Z" fill="#1E222E"/>
</g>
<defs>
<clipPath id="clip0_31_352">
<rect width="15" height="15" fill="white" transform="translate(12.5 12.5)"/>
</clipPath>
</defs>
</svg>
